<?xml version="1.0" standalone="no"?>
<!DOCTYPE svg PUBLIC "-//W3C//DTD SVG 20010904//EN"
 "http://www.w3.org/TR/2001/REC-SVG-20010904/DTD/svg10.dtd">
<svg version="1.0" xmlns="http://www.w3.org/2000/svg"
 width="89.000000pt" height="89.000000pt" viewBox="0 0 89.000000 89.000000"
 preserveAspectRatio="xMidYMid meet">
<metadata>
Created by potrace 1.11, written by Peter Selinger 2001-2013
</metadata>
<g transform="translate(0.000000,89.000000) scale(0.100000,-0.100000)"
fill="#000000" stroke="none">
<path d="M80 648 c0 -7 -3 -30 -6 -50 -6 -36 -5 -38 19 -38 18 0 30 8 39 28
11 22 20 27 48 27 l35 0 3 -172 2 -173 -25 -6 c-18 -4 -24 -11 -21 -21 3 -8 6
-17 6 -19 0 -2 40 -4 90 -4 82 0 90 2 90 19 0 11 -9 23 -20 26 -19 6 -20 15
-20 181 l0 174 36 0 c31 0 37 -4 47 -30 8 -21 18 -30 34 -30 19 0 23 5 23 30
0 23 4 30 20 30 19 0 20 -7 20 -174 0 -166 -1 -175 -20 -181 -11 -3 -20 -15
-20 -26 0 -18 8 -19 120 -19 132 0 168 9 210 55 50 54 23 152 -46 169 l-24 6
35 31 c60 53 57 120 -8 159 -30 19 -53 20 -349 20 -248 0 -318 -3 -318 -12z
m611 -60 c11 -16 11 -79 1 -94 -4 -7 -25 -14 -47 -15 l-40 -4 -3 59 c-4 81 -1
86 44 76 20 -5 41 -15 45 -22z m-22 -169 c37 -13 51 -35 51 -79 0 -55 -15 -70
-70 -70 l-50 0 0 73 c0 94 4 98 69 76z"/>
</g>
</svg>
